<svg xmlns="http://www.w3.org/2000/svg" viewBox="0 0 48 48">
  <path fill="#FFC107" d="M43.611 20.083H42V20H24v8h11.303C33.68 32.657 29.283 36 24 36c-6.627 0-12-5.373-12-12s5.373-12 12-12c3.06 0 5.842 1.154 7.964 3.036l5.657-5.657C34.14 6.053 29.33 4 24 4 12.954 4 4 12.954 4 24s8.954 20 20 20 20-8.954 20-20c0-1.341-.138-2.651-.389-3.917z"/>
  <path fill="#FF3D00" d="M6.306 14.691l6.571 4.819C14.655 16.108 19.01 12 24 12c3.06 0 5.842 1.154 7.964 3.036l5.657-5.657C34.14 6.053 29.33 4 24 4c-7.682 0-14.354 4.326-17.694 10.691z"/>
  <path fill="#4CAF50" d="M24 44c5.225 0 9.93-2.006 13.49-5.273l-6.207-5.253C29.283 36 26.765 37 24 37c-5.262 0-9.646-3.317-11.271-7.946l-6.52 5.025C9.505 40.556 16.227 44 24 44z"/>
  <path fill="#1976D2" d="M43.611 20.083H42V20H24v8h11.303c-.782 2.214-2.236 4.083-4.02 5.475l.003-.002 6.207 5.253C36.053 40.053 44 36 44 24c0-1.341-.138-2.651-.389-3.917z"/>
</svg>
